<?xml version="1.0" standalone="no"?>
<!DOCTYPE svg PUBLIC "-//W3C//DTD SVG 20010904//EN"
 "http://www.w3.org/TR/2001/REC-SVG-20010904/DTD/svg10.dtd">
<svg version="1.0" xmlns="http://www.w3.org/2000/svg"
 width="374.000000pt" height="377.000000pt" viewBox="0 0 374.000000 377.000000"
 preserveAspectRatio="xMidYMid meet">

<g transform="translate(0.000000,377.000000) scale(0.100000,-0.100000)"
fill="#000000" stroke="none">
<path d="M1750 3729 c-564 -32 -1113 -349 -1425 -824 -330 -500 -401 -1153
-185 -1694 106 -266 210 -429 404 -629 272 -280 600 -456 996 -534 97 -19 149
-22 330 -23 217 0 260 4 440 46 261 61 540 200 750 375 371 307 604 741 660
1229 85 746 -306 1489 -970 1838 -238 126 -487 199 -725 213 -49 2 -103 6
-120 7 -16 2 -86 0 -155 -4z m471 -133 c552 -118 986 -456 1232 -958 67 -136
109 -260 144 -428 24 -112 27 -146 27 -335 0 -189 -3 -223 -27 -335 -62 -296
-181 -551 -357 -765 -72 -87 -225 -236 -306 -298 -282 -213 -626 -337 -989
-354 -507 -23 -997 179 -1358 561 -217 229 -369 530 -439 863 -19 93 -22 139
-23 328 0 252 14 345 86 559 212 637 766 1091 1449 1186 36 5 151 7 255 5 155
-3 211 -8 306 -29z"/>
<path d="M2100 3284 c-137 -51 -213 -102 -244 -163 -15 -28 -40 -247 -30 -262
10 -16 -17 -49 -40 -49 -31 0 -139 -36 -199 -67 -27 -13 -50 -23 -51 -21 -1 2
-15 26 -31 53 -65 114 -132 175 -192 175 -47 0 -142 -49 -247 -127 -110 -81
-128 -109 -123 -185 4 -67 34 -117 88 -147 71 -40 116 -26 219 66 l55 50 -30
36 c-17 19 -34 36 -38 36 -5 1 -34 -21 -66 -49 -63 -54 -79 -59 -104 -32 -43
48 -15 87 139 189 107 71 117 69 184 -34 28 -41 50 -81 50 -88 0 -7 -25 -39
-56 -72 -136 -141 -221 -320 -260 -547 -22 -130 -15 -360 15 -495 26 -118 26
-121 -3 -121 -40 0 -148 -38 -193 -67 -60 -39 -77 -79 -69 -165 12 -117 65
-254 111 -284 32 -21 121 -20 172 1 48 20 72 42 88 80 11 26 10 38 -12 100
-14 38 -31 82 -39 96 -13 26 -15 26 -49 15 -59 -21 -61 -27 -31 -102 30 -75
26 -88 -31 -100 -40 -8 -58 17 -84 118 -26 97 -25 134 4 152 33 22 101 45 157
52 l48 6 27 -53 c42 -83 109 -172 171 -228 60 -53 168 -114 221 -126 35 -7 41
2 46 68 2 26 -3 31 -47 48 -183 73 -320 266 -387 544 -31 129 -31 359 1 499
60 269 196 463 396 565 109 55 244 77 361 57 41 -7 43 -6 54 21 6 15 11 39 12
53 2 23 -3 25 -63 35 l-65 10 -3 54 c-4 74 15 192 36 214 23 26 146 87 176 87
17 0 37 -17 71 -57 74 -90 81 -111 61 -173 -10 -29 -35 -94 -57 -144 -56 -127
-56 -120 -14 -145 20 -11 40 -21 45 -21 12 0 58 90 105 210 49 122 51 174 10
249 -31 55 -172 212 -190 210 -5 0 -39 -12 -75 -25z"/>
<path d="M2652 2587 c-65 -34 -152 -103 -177 -141 -14 -21 -12 -29 19 -97 51
-112 61 -166 61 -329 0 -187 -22 -278 -110 -466 -122 -260 -319 -454 -535
-523 -35 -12 -77 -34 -93 -48 -68 -66 -117 -178 -117 -270 0 -49 -8 -52 -55
-23 -39 24 -64 60 -80 115 -12 39 -14 40 -60 43 l-47 3 7 -43 c16 -99 88 -188
188 -232 59 -26 195 -61 203 -53 3 3 -9 35 -27 72 -25 51 -32 79 -32 123 0 99
65 196 148 222 64 20 186 86 239 130 26 22 50 40 53 40 2 0 29 -16 58 -35 59
-39 125 -107 125 -128 0 -34 -140 -207 -168 -207 -6 0 -26 13 -44 29 l-33 29
59 62 59 61 -34 35 c-18 19 -38 34 -44 34 -5 0 -41 -31 -78 -70 -57 -59 -67
-75 -67 -105 0 -20 7 -49 15 -64 22 -43 90 -97 140 -111 41 -12 47 -11 88 14
72 42 180 171 207 248 26 71 -27 161 -147 249 l-53 40 44 53 c164 202 258 428
287 691 11 96 10 126 -4 218 -9 58 -26 132 -38 164 -34 94 -34 99 -3 127 34
30 136 86 156 86 24 0 74 -61 133 -165 47 -82 56 -104 49 -124 -10 -28 -68
-66 -84 -56 -6 4 -28 42 -50 86 l-40 79 -40 -20 c-22 -11 -40 -22 -40 -25 0
-2 18 -42 40 -89 48 -104 79 -129 152 -123 91 8 158 78 158 167 0 63 -93 231
-173 315 -41 43 -46 45 -98 45 -41 0 -69 -8 -117 -33z"/>
<path d="M2034 2517 c-2 -7 -6 -26 -7 -42 -2 -24 5 -32 45 -54 96 -54 174
-153 216 -276 79 -229 -2 -537 -188 -708 -88 -82 -206 -131 -301 -125 -48 2
-61 -10 -57 -53 l3 -34 80 1 c97 0 176 23 254 75 138 90 230 216 292 399 28
82 33 112 37 220 5 150 -10 227 -69 348 -48 99 -126 183 -215 230 -68 35 -82
38 -90 19z"/>
</g>
</svg>
